<?xml version="1.0" encoding="utf-8"?>
<!-- Generator: Adobe Illustrator 21.0.0, SVG Export Plug-In . SVG Version: 6.00 Build 0)  -->
<svg version="1.1" id="图层_1" xmlns="http://www.w3.org/2000/svg" xmlns:xlink="http://www.w3.org/1999/xlink" x="0px" y="0px"
	 viewBox="0 0 272.7 93.4" style="enable-background:new 0 0 272.7 93.4;" xml:space="preserve">
<style type="text/css">
	.st0{fill:#FFFFFF;}
	.st1{font-family:'LaoMN';}
	.st2{font-size:26.4531px;}
</style>
<g>
	<g id="XMLID_26_">
		<path id="XMLID_27_" class="st0" d="M1,71.3C1,71.3,1,71.3,1,71.3L1,71.3C1,71.3,1,71.3,1,71.3z"/>
	</g>
	<g id="XMLID_24_">
		<path id="XMLID_25_" class="st0" d="M54.6,23.7l-5.9-5.9l5.9-5.9l-5.9-5.9l5.8-5.8C51.2-0.1,47.8,0,44.4,0.3
			C22.7,2.1,5.1,13.6,5.1,25.9c0,9.2,9.8,16.2,23.7,18.4c6.6-4.4,15.7-7.6,25.7-8.8l-5.9-5.9L54.6,23.7z"/>
	</g>
	<path id="XMLID_19_" class="st0" d="M87.2,27.4v-0.1c0-0.4-0.4-0.8-0.9-0.8c-0.3,0-0.6,0.2-0.8,0.5l0,0.1
		c-3,6.5-9.8,12.3-18.8,16.5c-6.6,3-14.3,5.1-22.6,5.9c-8.3,0.8-16,0.1-22.6-1.8c-9-2.5-15.9-7.1-18.9-13.1l-0.1-0.2
		c-0.2-0.2-0.4-0.4-0.7-0.4c-0.5,0-0.9,0.4-0.9,0.9v36.5v0c0,14.2,19.4,23.9,43.2,21.8c23.8-2.2,43-15.4,43-29.6v0L87.2,27.4z
		 M52.2,57.1v13.8c0,0.5-0.4,1-0.8,1.1c-0.1,0-0.2,0-0.3,0c-0.7,0.1-1.4,0.2-2.1,0.3c0,0,0,0,0,0c-0.1,0-0.1,0-0.2,0
		c-0.6,0-1.2-0.5-1.2-1.2V57.5v-0.3c0.1-0.5,0.4-0.8,0.8-0.9c0.1,0,0.2,0,0.4,0c0.7-0.1,1.4-0.2,2-0.3l0.3,0c0.6,0,1.1,0.4,1.1,1
		V57.1z M63.9,78.6c0,0.5-0.3,0.9-0.7,1.1c0,0,0,0,0,0c-0.8,0.3-1.5,0.5-2.3,0.7c-0.1,0-0.2,0.1-0.3,0.1c-0.1,0-0.1,0-0.2,0
		c-0.6,0-1.2-0.5-1.2-1.2V54.8c0-0.5,0.3-0.9,0.7-1.1c0.1,0,0.2-0.1,0.3-0.1c0.7-0.2,1.4-0.4,2-0.6c0,0,0,0,0,0
		c0.1,0,0.3-0.1,0.4-0.1c0.6,0,1.2,0.5,1.2,1.2V78.6z M75.5,73.5c0,0.4-0.2,0.7-0.5,1c-0.1,0-0.1,0.1-0.2,0.1
		c-0.7,0.4-1.4,0.8-2.1,1.1c-0.1,0.1-0.2,0.1-0.3,0.2c-0.1,0-0.2,0.1-0.4,0.1c-0.6,0-1.2-0.5-1.2-1.2c0,0,0,0,0,0l0,0V50.4
		c0,0,0,0,0,0c0,0,0,0,0,0c0-0.4,0.2-0.7,0.5-0.9c0.1-0.1,0.2-0.1,0.3-0.2c0.7-0.3,1.3-0.7,2-1c0.1-0.1,0.2-0.1,0.3-0.2
		c0.1,0,0.3-0.1,0.4-0.1c0.6,0,1.2,0.5,1.2,1.2V73.5z"/>
</g>
<g>
	<path class="st0" d="M119.6,22.4L119.6,22.4c0-1.4,1.1-2.5,2.5-2.5h2.7v-1.2c0-1.9,1.5-3.5,3.5-3.5l0,0v12.4h5.1v2.5h-3.8v14.2
		c0.5,0.1,1,0.2,1.6,0.2h19.5v2.4H131c-1.1,0-1.9,0-2.4-0.2c-0.6-0.1-1.2-0.3-1.7-0.7l-3.7-2.5l0,0.8c0,1-0.3,1.7-0.7,2.1
		c-0.4,0.4-1.1,0.6-2,0.6h-1.5v-2.6h0.6c0.6,0,0.8-0.2,0.8-0.8l0.3-8c0.1-1.6,1.4-2.9,3-2.9l0,0l0,7.6l2.5,1.9v-12H119v0
		c0-1.4,1.1-2.5,2.5-2.5h3.3v-5.3H119.6z"/>
	<path class="st0" d="M130.3,22.4L130.3,22.4c0-1.4,1.1-2.5,2.5-2.5h0.6v2.5H130.3z"/>
	<path class="st0" d="M130.2,38.4L130.2,38.4c0-1.4,1.1-2.5,2.5-2.5h0.6v2.5H130.2z"/>
	<path class="st0" d="M135,28.1v-2.4h0.9c0.9,0,1.4-0.5,1.5-1.4l0.7-4.4h3.3l-0.7,4.9c-0.2,1.3-0.5,2.1-1.1,2.6
		c-0.6,0.5-1.6,0.7-2.9,0.7H135z"/>
	<path class="st0" d="M142.5,28.1L142.5,28.1c0-1.3,1.1-2.4,2.4-2.4h1.8v-5.6c0-1.1-0.6-1.6-1.7-1.6h-10v0c0-1.4,1.1-2.5,2.5-2.5
		h8.2c1.5,0,2.6,0.3,3.3,0.8c0.8,0.6,1.2,1.6,1.2,3.2v8.1H142.5z"/>
	<path class="st0" d="M135.7,42.4v-7.9h3.4v5.4h7.3v-5.5c0-1-0.6-1.5-1.7-1.5h-9v0c0-1.3,1.1-2.4,2.4-2.4h7.5c1.3,0,2.4,0.3,3.1,0.8
		c0.7,0.6,1.1,1.5,1.1,2.9v8.3H135.7z"/>
	<path class="st0" d="M157.6,47L157.6,47c0-1.3,1.1-2.4,2.4-2.4h0.7v-5.3h3.3v5.3h4.7v-6.5h-8.1v0c0-1.3,1.1-2.4,2.4-2.4h21
		c1.4,0,2.4,0.3,3,0.8c0.6,0.5,1,1.4,1,2.9v5.3h3.1V47H157.6z M159.2,33.8V20.2h3.3v3.6h5.2v-3.6c0-0.9-0.5-1.4-1.4-1.4h-7.1v0
		c0-1.3,1.1-2.4,2.4-2.4h5.4c1.4,0,2.5,0.3,3.1,0.8c0.6,0.5,0.9,1.4,0.9,2.7v13.9H159.2z M162.5,31.5h5.2v-5.6h-5.2V31.5z M172,38.1
		v6.5h4.7v-6.5H172z M170.6,33.8v-2.4h2c0.7,0,1-0.3,1-0.9V19.9h3.4v1.3h8.4v-1.6c0-0.9-0.5-1.3-1.4-1.3h-10.4v0
		c0-1.3,1.1-2.4,2.4-2.4h8.9c1.2,0,2.2,0.2,2.9,0.7c0.7,0.5,1.1,1.3,1.1,2.5v14.7h-8.1v0c0-1.3,1.1-2.4,2.4-2.4h2.4v-3.3h-8.4v2.7
		c0,1-0.2,1.7-0.7,2.2c-0.5,0.5-1.2,0.8-2.4,0.8H170.6z M177.1,23.3v2.9h8.4v-1.8c0-0.6-0.5-1.1-1.1-1.1H177.1z M183.3,38.1h-3.4
		v6.5h4.7v-5.4C184.7,38.5,184.2,38.1,183.3,38.1z"/>
	<path class="st0" d="M237.4,24.3L237.4,24.3c0-1.4,1.2-2.6,2.6-2.6h0.8v-3c0-1.9,1.5-3.4,3.4-3.4l0,0V31l3.2-1.1v2.9l-3.2,1.1V47
		h-6.8v0c0-1.4,1.2-2.6,2.6-2.6h0.8V35l-3.4,1.1v0c0-1.7,1.1-3.2,2.7-3.7l0.7-0.2v-7.9H237.4z M245.4,24.3v-0.6c0-1.1,0.9-2,2-2l0,0
		v2.6H245.4z M245.5,47L245.5,47c0-1.3,1.1-2.4,2.4-2.4h0.9l0-1v-23h3.4v2.8h13v-3.4c0-1-0.6-1.4-1.6-1.5h-14.8v0
		c0-1.4,1.1-2.5,2.5-2.5h12.9c1.8,0,3,0.3,3.6,1.1c0.6,0.6,0.9,1.6,0.9,2.9v5.8h-16.4v17.9l0,3.3h-3.4H245.5z M254.7,32.7
		L254.7,32.7c0-1.4,1.1-2.5,2.5-2.5h2.7v-2.9h3.5v9h1.1c1.2,0,2.1,0.2,2.8,0.7c0.7,0.6,1.1,1.5,1.1,2.8V47h-13.6v-3.5
		c0-1.9,1.5-3.4,3.4-3.4h0v4.4h6.8v-4.2c0-1-0.5-1.4-1.6-1.5h-8.6v-2.5h5.1v-3.7H254.7z M265.2,32.7v-2.5h4v2.5H265.2z"/>
</g>
<path class="st0" d="M219.5,25.8c0.5-0.4,0.9-1.2,1.1-2.4l0.5-2.9h-3.1l-0.4,2.2c-0.1,0.7-0.5,1.2-1.1,1.2h0v2.5h0.5
	C218.1,26.4,218.9,26.2,219.5,25.8z"/>
<path class="st0" d="M200.4,21.8c-1.4,0-2.5,1.1-2.5,2.5h6.9v7.1h3.2v-7.1h6.9v-2.5h-6.9v-1.4h3c0.9,0,1.5-0.1,1.8-0.4
	c0.4-0.3,0.7-0.8,0.9-1.5l0.7-2.8h-0.6c-1.2,0-2.2,0.8-2.5,1.9v0c-0.1,0.5-0.4,0.8-1,0.7h-2.4v-3.1c-1.7,0-3.1,1.4-3.2,3.1h-2.5
	c-0.6,0-0.9-0.2-1-0.7v0c-0.3-1.1-1.3-1.9-2.5-1.9h-0.6l0.7,2.8c0.2,0.7,0.5,1.2,1,1.5c0.3,0.3,0.9,0.4,1.8,0.4h3v1.4H200.4z"/>
<polygon class="st0" points="221.4,18.7 222,15.3 218.8,15.3 218.2,18.7 "/>
<path class="st0" d="M201.5,30.7c0.5-0.3,0.9-0.8,1.1-1.5l0.8-3.4h-2.7l-0.7,2.5c-0.1,0.5-0.4,0.8-1,0.7h-1.1v2.1h1.5
	C200.4,31.1,201.1,30.9,201.5,30.7z"/>
<path class="st0" d="M228.7,44.4c-0.8,0-1.4-0.2-1.7-0.8l-2.4-3.6l3.3-5.4V23.2h1.8v-2.6h-7.5l-0.4,2.6h2.9v10.5l-2,3.3l-2.1-3.3v-6
	c-1.8,0-3.2,1.4-3.2,3.2v3.5l3.6,5.5l-2.2,3.6c-0.3,0.5-1.2,1-2.1,1h-3.7c0,0-0.1,0-0.2,0c-0.9,0-1.6-0.1-1.9-0.4l-1.8-1.4l3.6-2.6
	v-3.5h2.5v-2.5h-2.5v-2h-3.3v2h-5.5v-2h-3.3v2c-1.3,0-2.4,1.1-2.4,2.4v0.1h2.4v3.5l3.6,2.6l-1.8,1.4c-0.4,0.3-1.1,0.4-2.1,0.4
	c-1.1,0-2,0.9-2,2V47h2.4c0.9,0,1.8-0.1,2.5-0.3c0.7-0.1,1.3-0.4,1.8-0.7l1.8-1.4l1.8,1.4c0.4,0.3,1.1,0.6,2,0.8
	c0.6,0.1,1.4,0.2,2.3,0.2h4.2h0.4h0.6c1.1,0,1.9-0.2,2.5-0.6c0.5-0.3,1-0.8,1.4-1.5l1.2-1.9l1.2,1.9c0.4,0.7,0.9,1.2,1.5,1.6
	c0.6,0.4,1.5,0.6,2.5,0.6h2.4v-2.6H228.7z M206.4,41l-2.8-2.1v-2.3h5.5v2.3L206.4,41z"/>
<path class="st0" d="M212.9,28.2l-0.6-2.5h-2.7l0.9,3.4c0.2,0.7,0.5,1.2,1,1.5c0.5,0.3,1.2,0.4,2.1,0.4h1.5V29h-1.1
	C213.3,29,213,28.7,212.9,28.2z"/>
<text transform="matrix(1 0 0 1 117.0485 76.6389)" class="st0 st1 st2">C M   D a t a</text>
</svg>
