<?xml version="1.0" encoding="utf-8"?>
<!-- Generator: Adobe Illustrator 21.0.2, SVG Export Plug-In . SVG Version: 6.00 Build 0)  -->
<svg version="1.1" id="Layer_1" xmlns="http://www.w3.org/2000/svg" xmlns:xlink="http://www.w3.org/1999/xlink" x="0px" y="0px"
	 viewBox="0 0 512 512" style="enable-background:new 0 0 512 512;" xml:space="preserve">
<style type="text/css">
	.st0{fill:#FF4A0C;}
</style>
<path class="st0" d="M256,47.5c-17.8,0-32.3,14.5-32.3,32.3v161.6c0,17.8,14.5,32.3,32.3,32.3s32.3-14.5,32.3-32.3V79.8
	C288.3,62,273.8,47.5,256,47.5z"/>
<path class="st0" d="M256,464.5c-114.1,0-207-92.9-207-207c0-63.8,28.8-123,78.9-162.6c10.5-8.3,25.8-6.5,34,4
	c8.3,10.5,6.5,25.8-4,34c-38.4,30.3-60.4,75.7-60.4,124.6C97.5,344.9,168.6,416,256,416c87.4,0,158.5-71.1,158.5-158.5
	c0-48.9-22-94.3-60.5-124.6c-10.5-8.3-12.3-23.5-4-34c8.3-10.5,23.5-12.3,34-4c50.2,39.6,78.9,98.8,78.9,162.7
	C463,371.6,370.1,464.5,256,464.5L256,464.5z"/>
</svg>
