<?xml version="1.0" encoding="utf-8"?>
<!-- Generator: Adobe Illustrator 21.0.2, SVG Export Plug-In . SVG Version: 6.00 Build 0)  -->
<svg version="1.1" id="图层_1" xmlns="http://www.w3.org/2000/svg" xmlns:xlink="http://www.w3.org/1999/xlink" x="0px" y="0px"
	 viewBox="0 0 662 817.3" style="enable-background:new 0 0 662 817.3;" xml:space="preserve">
<style type="text/css">
	.st0{fill:#F76260;}
	.st1{fill:none;}
</style>
<path class="st0" d="M636.7,114.4c-112.9,0-216.1-38.9-288.2-107.1c-9.7-9.7-25.3-9.7-35,0C243.4,75.4,138.2,114.4,25.3,114.4
	C11.7,114.4,0,126.1,0,139.7v309.6c0,99.3,52.6,190.8,138.2,247.3l179.1,116.8c3.9,1.9,9.7,3.9,13.6,3.9c3.9,0,9.7-1.9,13.6-3.9
	l179.1-116.8C611.4,640.1,662,546.6,662,449.3V139.7C662,126.1,650.3,114.4,636.7,114.4L636.7,114.4z M377.7,534.9
	c0,17.5-19.5,37-46.7,37c-29.2,0-46.7-19.5-46.7-37c0-25.3,29.2-42.8,29.2-79.8c0-46.7-40.9-111-40.9-151.9
	c0-31.2,23.4-52.6,58.4-52.6c35,0,58.4,21.4,58.4,52.6c0,38.9-40.9,105.1-40.9,151.9C350.5,496,377.7,507.7,377.7,534.9L377.7,534.9
	z M377.7,534.9"/>
<rect x="-44" y="53" class="st1" width="661.9" height="818.8"/>
</svg>
