<?xml version="1.0" encoding="utf-8"?>
<!-- Generator: Adobe Illustrator 21.0.2, SVG Export Plug-In . SVG Version: 6.00 Build 0)  -->
<svg version="1.1" id="Layer_1" xmlns="http://www.w3.org/2000/svg" xmlns:xlink="http://www.w3.org/1999/xlink" x="0px" y="0px"
	 viewBox="0 0 512 512" style="enable-background:new 0 0 512 512;" xml:space="preserve">
<style type="text/css">
	.st0{fill:#FF4A0C;}
</style>
<path class="st0" d="M500,256c0-134.2-108.8-243-243-243S14,121.8,14,256c0,70.7,30.3,134.4,78.5,178.8c4.1,5.3,10.2,10.3,17.8,14.9
	C151.1,480.6,201.9,499,257,499c57.9,0,111.1-20.3,152.8-54.1c3-2.2,5.6-4.4,7.9-6.7C468.2,393.6,500,328.6,500,256z M36.8,256
	c0-121.6,98.6-220.2,220.2-220.2c121.6,0,220.2,98.6,220.2,220.2c0,53.7-19.3,102.9-51.2,141.1c-6.8-34.9-33.4-35-69.1-42.4
	c-37.7-7.9-71.2-9.3-57.7-59.6c18.2-13.3,22.3-40.5,44.6-49.5c8.4-10.8,6.3-28.6,0-36.3c-6.3-7.7-10.3-2.9-11.7-8.2
	c-1.3-28.1,9.5-69.4-9.8-82.7c-3.2-2-6.2-2.6-9.5-2.6c-3.4,0-7.2,0.7-10.9,0.7c-2.4,0-5.2-0.4-7.5-1.3c-10.9-4-11.4-18.4-23.4-19.7
	c-3.2,0-6.5,0-9.9,0c-16.5,11.1-36.2,9.2-53.4,14c-0.7,0.2-1.8,0.4-2.4,0.8c-10.1,3.2-16.2,9.2-20.2,16.9
	c-5.4,10.8-6.6,25.4-6.6,41.7c-0.1,9.6,0.2,20,0.2,30.5c-8.5,4.5-12,13.8-12.2,23.6c-0.2,5.6,0.6,11.6,2.2,16.5
	c2.7,9.1,11.2,11.4,18.1,19.9c8.1,10,13.8,23.6,20.9,31.1c2.8,2.6,5.5,4.5,9.2,5.2c0,11,0,21.7,0,32.6c-2.8,3.7-5.8,6.7-9.2,9.4
	c-30.7,25.8-93.3,14.7-113.4,53.2c-2.5,5-3.7,6.7-4.5,8.3C56.7,360.6,36.8,310.7,36.8,256z"/>
</svg>
